<svg width="854" height="64" viewBox="0 0 854 64" fill="none" xmlns="http://www.w3.org/2000/svg">
<path d="M69.0312 75.25C65.0962 75.25 61.9062 72.06 61.9062 68.125V20.625C61.9062 19.3133 62.9696 18.25 64.2812 18.25C64.9111 18.25 65.5152 17.9998 65.9606 17.5544C66.406 17.109 66.6562 16.5049 66.6562 15.875C66.6562 15.2451 66.406 14.641 65.9606 14.1956C65.5152 13.7502 64.9111 13.5 64.2812 13.5H12.0312C11.4014 13.5 10.7973 13.7502 10.3519 14.1956C9.90647 14.641 9.65625 15.2451 9.65625 15.875C9.65625 16.5049 9.90647 17.109 10.3519 17.5544C10.7973 17.9998 11.4014 18.25 12.0312 18.25C13.3429 18.25 14.4062 19.3133 14.4062 20.625V68.125C14.4062 72.06 11.2163 75.25 7.28125 75.25C6.65136 75.25 6.04727 75.5002 5.60187 75.9456C5.15647 76.391 4.90625 76.9951 4.90625 77.625C4.90625 78.2549 5.15647 78.859 5.60187 79.3044C6.04727 79.7498 6.65136 80 7.28125 80H69.0312C69.6611 80 70.2652 79.7498 70.7106 79.3044C71.156 78.859 71.4062 78.2549 71.4062 77.625C71.4062 76.9951 71.156 76.391 70.7106 75.9456C70.2652 75.5002 69.6611 75.25 69.0312 75.25ZM19.1562 26.25C19.1562 21.8317 22.738 18.25 27.1562 18.25H49.1562C53.5745 18.25 57.1562 21.8317 57.1562 26.25V70.5C57.1562 73.1234 55.0296 75.25 52.4062 75.25C49.7829 75.25 47.6562 73.1234 47.6562 70.5V63.375C47.6562 62.7451 47.406 62.141 46.9606 61.6956C46.5152 61.2502 45.9111 61 45.2812 61H31.0312C30.4014 61 29.7973 61.2502 29.3519 61.6956C28.9065 62.141 28.6562 62.7451 28.6562 63.375V70.5C28.6562 73.1234 26.5296 75.25 23.9062 75.25C21.2829 75.25 19.1562 73.1234 19.1562 70.5V26.25ZM42.9062 70.5C42.9062 73.1234 40.7796 75.25 38.1562 75.25C35.5329 75.25 33.4062 73.1234 33.4062 70.5C33.4062 67.8766 35.5329 65.75 38.1562 65.75C40.7796 65.75 42.9062 67.8766 42.9062 70.5ZM26.2812 27.75C26.2812 27.1201 26.5315 26.516 26.9769 26.0706C27.4223 25.6252 28.0264 25.375 28.6562 25.375H33.4062C34.0361 25.375 34.6402 25.6252 35.0856 26.0706C35.531 26.516 35.7812 27.1201 35.7812 27.75C35.7812 28.3799 35.531 28.984 35.0856 29.4294C34.6402 29.8748 34.0361 30.125 33.4062 30.125H28.6562C28.0264 30.125 27.4223 29.8748 26.9769 29.4294C26.5315 28.984 26.2812 28.3799 26.2812 27.75ZM40.5312 27.75C40.5312 27.1201 40.7815 26.516 41.2269 26.0706C41.6723 25.6252 42.2764 25.375 42.9062 25.375H47.6562C48.2861 25.375 48.8902 25.6252 49.3356 26.0706C49.781 26.516 50.0312 27.1201 50.0312 27.75C50.0312 28.3799 49.781 28.984 49.3356 29.4294C48.8902 29.8748 48.2861 30.125 47.6562 30.125H42.9062C42.2764 30.125 41.6723 29.8748 41.2269 29.4294C40.7815 28.984 40.5312 28.3799 40.5312 27.75ZM26.2812 39.625C26.2812 38.9951 26.5315 38.391 26.9769 37.9456C27.4223 37.5002 28.0264 37.25 28.6562 37.25H33.4062C34.0361 37.25 34.6402 37.5002 35.0856 37.9456C35.531 38.391 35.7812 38.9951 35.7812 39.625C35.7812 40.2549 35.531 40.859 35.0856 41.3044C34.6402 41.7498 34.0361 42 33.4062 42H28.6562C28.0264 42 27.4223 41.7498 26.9769 41.3044C26.5315 40.859 26.2812 40.2549 26.2812 39.625ZM40.5312 39.625C40.5312 38.9951 40.7815 38.391 41.2269 37.9456C41.6723 37.5002 42.2764 37.25 42.9062 37.25H47.6562C48.2861 37.25 48.8902 37.5002 49.3356 37.9456C49.781 38.391 50.0312 38.9951 50.0312 39.625C50.0312 40.2549 49.781 40.859 49.3356 41.3044C48.8902 41.7498 48.2861 42 47.6562 42H42.9062C42.2764 42 41.6723 41.7498 41.2269 41.3044C40.7815 40.859 40.5312 40.2549 40.5312 39.625ZM26.2812 51.5C26.2812 50.8701 26.5315 50.266 26.9769 49.8206C27.4223 49.3752 28.0264 49.125 28.6562 49.125H33.4062C34.0361 49.125 34.6402 49.3752 35.0856 49.8206C35.531 50.266 35.7812 50.8701 35.7812 51.5C35.7812 52.1299 35.531 52.734 35.0856 53.1794C34.6402 53.6248 34.0361 53.875 33.4062 53.875H28.6562C28.0264 53.875 27.4223 53.6248 26.9769 53.1794C26.5315 52.734 26.2812 52.1299 26.2812 51.5ZM40.5312 51.5C40.5312 50.8701 40.7815 50.266 41.2269 49.8206C41.6723 49.3752 42.2764 49.125 42.9062 49.125H47.6562C48.2861 49.125 48.8902 49.3752 49.3356 49.8206C49.781 50.266 50.0312 50.8701 50.0312 51.5C50.0312 52.1299 49.781 52.734 49.3356 53.1794C48.8902 53.6248 48.2861 53.875 47.6562 53.875H42.9062C42.2764 53.875 41.6723 53.6248 41.2269 53.1794C40.7815 52.734 40.5312 52.1299 40.5312 51.5Z" fill="#B5D1FF"/>
<path d="M145.953 74.0156C144.447 74.0156 143.227 72.7949 143.227 71.2891V27.6641C143.227 26.9409 142.939 26.2474 142.428 25.7361C141.917 25.2248 141.223 24.9375 140.5 24.9375H134.867C130.449 24.9375 126.867 21.3558 126.867 16.9375V16.7578C126.867 16.0347 126.58 15.3412 126.069 14.8298C125.557 14.3185 124.864 14.0313 124.141 14.0312H91.4219C90.6987 14.0312 90.0052 14.3185 89.4939 14.8298C88.9826 15.3412 88.6953 16.0347 88.6953 16.7578V27.8438C88.6953 32.262 85.1136 35.8438 80.6953 35.8438H75.0625C74.3394 35.8438 73.6459 36.131 73.1345 36.6423C72.6232 37.1537 72.3359 37.8472 72.3359 38.5703V71.2891C72.3359 72.7949 71.1152 74.0156 69.6094 74.0156C68.8862 74.0156 68.1927 74.3029 67.6814 74.8142C67.1701 75.3255 66.8828 76.0191 66.8828 76.7422C66.8828 77.4653 67.1701 78.1588 67.6814 78.6702C68.1927 79.1815 68.8862 79.4688 69.6094 79.4688H145.953C146.676 79.4688 147.37 79.1815 147.881 78.6702C148.392 78.1588 148.68 77.4653 148.68 76.7422C148.68 76.0191 148.392 75.3255 147.881 74.8142C147.37 74.3029 146.676 74.0156 145.953 74.0156ZM77.7891 49.2969C77.7891 44.8786 81.3708 41.2969 85.7891 41.2969H91.4219C92.145 41.2969 92.8385 41.0096 93.3498 40.4983C93.8612 39.987 94.1484 39.2934 94.1484 38.5703V27.4844C94.1484 23.0661 97.7302 19.4844 102.148 19.4844H113.414C117.832 19.4844 121.414 23.0661 121.414 27.4844V27.6641C121.414 28.3872 121.701 29.0807 122.213 29.592C122.724 30.1034 123.417 30.3906 124.141 30.3906H129.773C134.192 30.3906 137.773 33.9723 137.773 38.3906V66.0156C137.773 70.4339 134.192 74.0156 129.773 74.0156H123.961C119.543 74.0156 115.961 70.4339 115.961 66.0156V60.3828C115.961 59.6597 115.674 58.9662 115.162 58.4548C114.651 57.9435 113.958 57.6562 113.234 57.6562H102.328C101.605 57.6562 100.911 57.9435 100.4 58.4548C99.8888 58.9662 99.6016 59.6597 99.6016 60.3828V66.0156C99.6016 70.4339 96.0198 74.0156 91.6016 74.0156H85.7891C81.3708 74.0156 77.7891 70.4339 77.7891 66.0156V49.2969ZM110.508 71.2891C110.508 72.7949 109.287 74.0156 107.781 74.0156C106.275 74.0156 105.055 72.7949 105.055 71.2891V65.8359C105.055 64.3301 106.275 63.1094 107.781 63.1094C109.287 63.1094 110.508 64.3301 110.508 65.8359V71.2891ZM102.328 27.6641C102.328 26.9409 102.615 26.2474 103.127 25.7361C103.638 25.2248 104.332 24.9375 105.055 24.9375H110.508C111.231 24.9375 111.924 25.2248 112.436 25.7361C112.947 26.2474 113.234 26.9409 113.234 27.6641C113.234 28.3872 112.947 29.0807 112.436 29.592C111.924 30.1034 111.231 30.3906 110.508 30.3906H105.055C104.332 30.3906 103.638 30.1034 103.127 29.592C102.615 29.0807 102.328 28.3872 102.328 27.6641ZM102.328 38.5703C102.328 37.8472 102.615 37.1537 103.127 36.6423C103.638 36.131 104.332 35.8438 105.055 35.8438H110.508C111.231 35.8438 111.924 36.131 112.436 36.6423C112.947 37.1537 113.234 37.8472 113.234 38.5703C113.234 39.2934 112.947 39.987 112.436 40.4983C111.924 41.0096 111.231 41.2969 110.508 41.2969H105.055C104.332 41.2969 103.638 41.0096 103.127 40.4983C102.615 39.987 102.328 39.2934 102.328 38.5703ZM121.414 38.5703C121.414 37.8472 121.701 37.1537 122.213 36.6423C122.724 36.131 123.417 35.8438 124.141 35.8438H129.594C130.317 35.8438 131.01 36.131 131.522 36.6423C132.033 37.1537 132.32 37.8472 132.32 38.5703C132.32 39.2934 132.033 39.987 131.522 40.4983C131.01 41.0096 130.317 41.2969 129.594 41.2969H124.141C123.417 41.2969 122.724 41.0096 122.213 40.4983C121.701 39.987 121.414 39.2934 121.414 38.5703ZM94.1484 49.4766C94.1484 50.1997 93.8612 50.8932 93.3498 51.4045C92.8385 51.9159 92.145 52.2031 91.4219 52.2031H85.9688C85.2456 52.2031 84.5521 51.9159 84.0408 51.4045C83.5294 50.8932 83.2422 50.1997 83.2422 49.4766C83.2422 48.7534 83.5294 48.0599 84.0408 47.5486C84.5521 47.0373 85.2456 46.75 85.9688 46.75H91.4219C92.145 46.75 92.8385 47.0373 93.3498 47.5486C93.8612 48.0599 94.1484 48.7534 94.1484 49.4766ZM94.1484 60.3828C94.1484 61.1059 93.8612 61.7995 93.3498 62.3108C92.8385 62.8221 92.145 63.1094 91.4219 63.1094H85.9688C85.2456 63.1094 84.5521 62.8221 84.0408 62.3108C83.5294 61.7995 83.2422 61.1059 83.2422 60.3828C83.2422 59.6597 83.5294 58.9662 84.0408 58.4548C84.5521 57.9435 85.2456 57.6562 85.9688 57.6562H91.4219C92.145 57.6562 92.8385 57.9435 93.3498 58.4548C93.8612 58.9662 94.1484 59.6597 94.1484 60.3828ZM102.328 49.4766C102.328 48.7534 102.615 48.0599 103.127 47.5486C103.638 47.0373 104.332 46.75 105.055 46.75H110.508C111.231 46.75 111.924 47.0373 112.436 47.5486C112.947 48.0599 113.234 48.7534 113.234 49.4766C113.234 50.1997 112.947 50.8932 112.436 51.4045C111.924 51.9159 111.231 52.2031 110.508 52.2031H105.055C104.332 52.2031 103.638 51.9159 103.127 51.4045C102.615 50.8932 102.328 50.1997 102.328 49.4766ZM121.414 49.4766C121.414 48.7534 121.701 48.0599 122.213 47.5486C122.724 47.0373 123.417 46.75 124.141 46.75H129.594C130.317 46.75 131.01 47.0373 131.522 47.5486C132.033 48.0599 132.32 48.7534 132.32 49.4766C132.32 50.1997 132.033 50.8932 131.522 51.4045C131.01 51.9159 130.317 52.2031 129.594 52.2031H124.141C123.417 52.2031 122.724 51.9159 122.213 51.4045C121.701 50.8932 121.414 50.1997 121.414 49.4766ZM121.414 60.3828C121.414 59.6597 121.701 58.9662 122.213 58.4548C122.724 57.9435 123.417 57.6562 124.141 57.6562H129.594C130.317 57.6562 131.01 57.9435 131.522 58.4548C132.033 58.9662 132.32 59.6597 132.32 60.3828C132.32 61.1059 132.033 61.7995 131.522 62.3108C131.01 62.8221 130.317 63.1094 129.594 63.1094H124.141C123.417 63.1094 122.724 62.8221 122.213 62.3108C121.701 61.7995 121.414 61.1059 121.414 60.3828Z" fill="#B5D1FF"/>
<path d="M216.104 72.3164C214.692 72.3164 213.547 71.1718 213.547 69.7598V33.9668C213.547 33.2887 213.278 32.6384 212.798 32.159C212.319 31.6795 211.668 31.4102 210.99 31.4102H190.537C189.859 31.4102 189.209 31.6795 188.729 32.159C188.25 32.6384 187.98 33.2887 187.98 33.9668V39.0801C187.98 43.3161 184.547 46.75 180.311 46.75C176.075 46.75 172.641 43.3161 172.641 39.0801V18.627C172.641 17.9489 172.371 17.2986 171.892 16.8191C171.412 16.3397 170.762 16.0703 170.084 16.0703H149.631C148.953 16.0703 148.303 16.3397 147.823 16.8191C147.344 17.2986 147.074 17.9489 147.074 18.627V69.7598C147.074 71.1718 145.93 72.3164 144.518 72.3164C143.84 72.3164 143.189 72.5858 142.71 73.0652C142.23 73.5447 141.961 74.195 141.961 74.873C141.961 75.5511 142.23 76.2014 142.71 76.6809C143.189 77.1603 143.84 77.4297 144.518 77.4297H216.104C216.782 77.4297 217.432 77.1603 217.911 76.6809C218.391 76.2014 218.66 75.5511 218.66 74.873C218.66 74.195 218.391 73.5447 217.911 73.0652C217.432 72.5858 216.782 72.3164 216.104 72.3164ZM193.094 44.1934C193.094 39.9574 196.528 36.5234 200.764 36.5234C205 36.5234 208.434 39.9574 208.434 44.1934V64.6465C208.434 68.8825 205 72.3164 200.764 72.3164C196.528 72.3164 193.094 68.8825 193.094 64.6465V44.1934ZM180.311 51.8633C184.547 51.8633 187.98 55.2972 187.98 59.5332V64.6465C187.98 68.8825 184.547 72.3164 180.311 72.3164C176.075 72.3164 172.641 68.8825 172.641 64.6465V59.5332C172.641 55.2972 176.075 51.8633 180.311 51.8633ZM152.188 28.8535C152.188 24.6175 155.621 21.1836 159.857 21.1836C164.093 21.1836 167.527 24.6175 167.527 28.8535V64.6465C167.527 68.8825 164.093 72.3164 159.857 72.3164C155.621 72.3164 152.188 68.8825 152.188 64.6465V28.8535ZM162.414 28.8535V33.9668C162.414 34.6449 162.145 35.2952 161.665 35.7746C161.186 36.2541 160.535 36.5234 159.857 36.5234C159.179 36.5234 158.529 36.2541 158.05 35.7746C157.57 35.2952 157.301 34.6449 157.301 33.9668V28.8535C157.301 28.1755 157.57 27.5252 158.05 27.0457C158.529 26.5662 159.179 26.2969 159.857 26.2969C160.535 26.2969 161.186 26.5662 161.665 27.0457C162.145 27.5252 162.414 28.1755 162.414 28.8535ZM162.414 44.1934V49.3066C162.414 49.9847 162.145 50.635 161.665 51.1145C161.186 51.5939 160.535 51.8633 159.857 51.8633C159.179 51.8633 158.529 51.5939 158.05 51.1145C157.57 50.635 157.301 49.9847 157.301 49.3066V44.1934C157.301 43.5153 157.57 42.865 158.05 42.3855C158.529 41.9061 159.179 41.6367 159.857 41.6367C160.535 41.6367 161.186 41.9061 161.665 42.3855C162.145 42.865 162.414 43.5153 162.414 44.1934ZM162.414 59.5332V64.6465C162.414 65.3245 162.145 65.9748 161.665 66.4543C161.186 66.9338 160.535 67.2031 159.857 67.2031C159.179 67.2031 158.529 66.9338 158.05 66.4543C157.57 65.9748 157.301 65.3245 157.301 64.6465V59.5332C157.301 58.8551 157.57 58.2048 158.05 57.7254C158.529 57.2459 159.179 56.9766 159.857 56.9766C160.535 56.9766 161.186 57.2459 161.665 57.7254C162.145 58.2048 162.414 58.8551 162.414 59.5332ZM177.754 64.6465V59.5332C177.754 58.8551 178.023 58.2048 178.503 57.7254C178.982 57.2459 179.632 56.9766 180.311 56.9766C180.989 56.9766 181.639 57.2459 182.118 57.7254C182.598 58.2048 182.867 58.8551 182.867 59.5332V64.6465C182.867 65.3245 182.598 65.9748 182.118 66.4543C181.639 66.9338 180.989 67.2031 180.311 67.2031C179.632 67.2031 178.982 66.9338 178.503 66.4543C178.023 65.9748 177.754 65.3245 177.754 64.6465ZM198.207 64.6465V59.5332C198.207 58.8551 198.476 58.2048 198.956 57.7254C199.435 57.2459 200.086 56.9766 200.764 56.9766C201.442 56.9766 202.092 57.2459 202.571 57.7254C203.051 58.2048 203.32 58.8551 203.32 59.5332V64.6465C203.32 65.3245 203.051 65.9748 202.571 66.4543C202.092 66.9338 201.442 67.2031 200.764 67.2031C200.086 67.2031 199.435 66.9338 198.956 66.4543C198.476 65.9748 198.207 65.3245 198.207 64.6465ZM198.207 49.3066V44.1934C198.207 43.5153 198.476 42.865 198.956 42.3855C199.435 41.9061 200.086 41.6367 200.764 41.6367C201.442 41.6367 202.092 41.9061 202.571 42.3855C203.051 42.865 203.32 43.5153 203.32 44.1934V49.3066C203.32 49.9847 203.051 50.635 202.571 51.1145C202.092 51.5939 201.442 51.8633 200.764 51.8633C200.086 51.8633 199.435 51.5939 198.956 51.1145C198.476 50.635 198.207 49.9847 198.207 49.3066Z" fill="#B5D1FF"/>
<g clip-path="url(#clip0_658_35091)">
<path d="M299.797 75.9688C296.569 75.9688 293.953 73.3524 293.953 70.125V37.3573C293.953 36.0899 295.123 35.1029 296.019 34.2067C296.567 33.6587 296.875 32.9156 296.875 32.1406C296.875 31.3657 296.567 30.6225 296.019 30.0745C295.471 29.5266 294.728 29.2188 293.953 29.2188H282.266C279.038 29.2188 276.422 26.6024 276.422 23.375V19.826C276.422 18.5587 277.592 17.5716 278.488 16.6755C279.036 16.1275 279.344 15.3843 279.344 14.6094C279.344 13.8344 279.036 13.0913 278.488 12.5433C277.94 11.9953 277.197 11.6875 276.422 11.6875H223.828C223.053 11.6875 222.31 11.9953 221.762 12.5433C221.214 13.0913 220.906 13.8344 220.906 14.6094C220.906 15.3843 221.214 16.1275 221.762 16.6755C222.658 17.5716 223.828 18.5587 223.828 19.826V70.125C223.828 73.3524 221.212 75.9688 217.984 75.9688C217.209 75.9688 216.466 76.2766 215.918 76.8245C215.37 77.3725 215.062 78.1157 215.062 78.8906C215.062 79.6656 215.37 80.4087 215.918 80.9567C216.466 81.5047 217.209 81.8125 217.984 81.8125H299.797C300.572 81.8125 301.315 81.5047 301.863 80.9567C302.411 80.4087 302.719 79.6656 302.719 78.8906C302.719 78.1157 302.411 77.3725 301.863 76.8245C301.315 76.2766 300.572 75.9688 299.797 75.9688ZM282.266 35.0625C285.493 35.0625 288.109 37.6788 288.109 40.9062V70.125C288.109 73.3524 285.493 75.9688 282.266 75.9688C279.038 75.9688 276.422 73.3524 276.422 70.125V40.9062C276.422 37.6788 279.038 35.0625 282.266 35.0625ZM229.672 25.5312C229.672 21.113 233.254 17.5312 237.672 17.5312H262.578C266.996 17.5312 270.578 21.113 270.578 25.5312V71.5859C270.578 74.0065 268.616 75.9688 266.195 75.9688C263.775 75.9688 261.812 74.0065 261.812 71.5859V58.4375C261.812 57.6626 261.505 56.9194 260.957 56.3714C260.409 55.8235 259.666 55.5156 258.891 55.5156H241.359C240.584 55.5156 239.841 55.8235 239.293 56.3714C238.745 56.9194 238.438 57.6626 238.438 58.4375V71.5859C238.438 74.0065 236.475 75.9688 234.055 75.9688C231.634 75.9688 229.672 74.0065 229.672 71.5859V25.5312ZM255.969 70.125C255.969 73.3524 253.352 75.9688 250.125 75.9688C246.898 75.9688 244.281 73.3524 244.281 70.125V67.2031C244.281 63.9757 246.898 61.3594 250.125 61.3594C253.352 61.3594 255.969 63.9757 255.969 67.2031V70.125ZM235.516 29.2188C235.516 28.4438 235.823 27.7006 236.371 27.1527C236.919 26.6047 237.663 26.2969 238.438 26.2969H244.281C245.056 26.2969 245.799 26.6047 246.347 27.1527C246.895 27.7006 247.203 28.4438 247.203 29.2188C247.203 29.9937 246.895 30.7369 246.347 31.2848C245.799 31.8328 245.056 32.1406 244.281 32.1406H238.438C237.663 32.1406 236.919 31.8328 236.371 31.2848C235.823 30.7369 235.516 29.9937 235.516 29.2188ZM253.047 29.2188C253.047 28.4438 253.355 27.7006 253.903 27.1527C254.451 26.6047 255.194 26.2969 255.969 26.2969H261.812C262.587 26.2969 263.331 26.6047 263.879 27.1527C264.427 27.7006 264.734 28.4438 264.734 29.2188C264.734 29.9937 264.427 30.7369 263.879 31.2848C263.331 31.8328 262.587 32.1406 261.812 32.1406H255.969C255.194 32.1406 254.451 31.8328 253.903 31.2848C253.355 30.7369 253.047 29.9937 253.047 29.2188ZM235.516 43.8281C235.516 43.0532 235.823 42.31 236.371 41.762C236.919 41.2141 237.663 40.9062 238.438 40.9062H244.281C245.056 40.9062 245.799 41.2141 246.347 41.762C246.895 42.31 247.203 43.0532 247.203 43.8281C247.203 44.6031 246.895 45.3462 246.347 45.8942C245.799 46.4422 245.056 46.75 244.281 46.75H238.438C237.663 46.75 236.919 46.4422 236.371 45.8942C235.823 45.3462 235.516 44.6031 235.516 43.8281ZM253.047 43.8281C253.047 43.0532 253.355 42.31 253.903 41.762C254.451 41.2141 255.194 40.9062 255.969 40.9062H261.812C262.587 40.9062 263.331 41.2141 263.879 41.762C264.427 42.31 264.734 43.0532 264.734 43.8281C264.734 44.6031 264.427 45.3462 263.879 45.8942C263.331 46.4422 262.587 46.75 261.812 46.75H255.969C255.194 46.75 254.451 46.4422 253.903 45.8942C253.355 45.3462 253.047 44.6031 253.047 43.8281Z" fill="#B5D1FF"/>
</g>
<path d="M365.719 71.7533C362.957 71.7533 360.719 69.5147 360.719 66.7533V36.7533C360.719 35.4272 360.192 34.1554 359.254 33.2177C358.317 32.28 357.045 31.7533 355.719 31.7533H343.719C339.3 31.7533 335.719 28.1715 335.719 23.7532V16.7533C335.719 15.8478 335.474 14.9592 335.009 14.1823C334.544 13.4054 333.877 12.7693 333.079 12.342C332.28 11.9146 331.381 11.712 330.477 11.7559C329.572 11.7997 328.697 12.0882 327.944 12.5908L302.944 29.2533C302.258 29.7108 301.696 30.3309 301.308 31.0582C300.92 31.7855 300.717 32.5976 300.719 33.422V66.7533C300.719 69.5147 298.48 71.7533 295.719 71.7533C295.056 71.7533 294.42 72.0166 293.951 72.4855C293.482 72.9543 293.219 73.5902 293.219 74.2533C293.219 74.9163 293.482 75.5522 293.951 76.021C294.42 76.4899 295.056 76.7533 295.719 76.7533H365.719C366.382 76.7533 367.018 76.4899 367.487 76.021C367.955 75.5522 368.219 74.9163 368.219 74.2533C368.219 73.5902 367.955 72.9543 367.487 72.4855C367.018 72.0166 366.382 71.7533 365.719 71.7533ZM347.719 36.7533C352.137 36.7533 355.719 40.335 355.719 44.7533V63.7533C355.719 68.1715 352.137 71.7533 347.719 71.7533H343.719C339.3 71.7533 335.719 68.1715 335.719 63.7533V44.7532C335.719 40.335 339.3 36.7533 343.719 36.7533H347.719ZM305.719 37.7032C305.719 35.0285 307.055 32.5308 309.281 31.047L318.281 25.0463C323.597 21.5016 330.719 25.3127 330.719 31.7024V63.7533C330.719 68.1715 327.137 71.7533 322.719 71.7533H313.719C309.3 71.7533 305.719 68.1715 305.719 63.7533V37.7032ZM325.719 41.7533V46.7533C325.719 47.4163 325.455 48.0522 324.987 48.521C324.518 48.9899 323.882 49.2533 323.219 49.2533C322.556 49.2533 321.92 48.9899 321.451 48.521C320.982 48.0522 320.719 47.4163 320.719 46.7533V41.7533C320.719 41.0902 320.982 40.4543 321.451 39.9855C321.92 39.5166 322.556 39.2533 323.219 39.2533C323.882 39.2533 324.518 39.5166 324.987 39.9855C325.455 40.4543 325.719 41.0902 325.719 41.7533ZM315.719 41.7533V46.7533C315.719 47.4163 315.455 48.0522 314.987 48.521C314.518 48.9899 313.882 49.2533 313.219 49.2533C312.556 49.2533 311.92 48.9899 311.451 48.521C310.982 48.0522 310.719 47.4163 310.719 46.7533V41.7533C310.719 41.0902 310.982 40.4543 311.451 39.9855C311.92 39.5166 312.556 39.2533 313.219 39.2533C313.882 39.2533 314.518 39.5166 314.987 39.9855C315.455 40.4543 315.719 41.0902 315.719 41.7533ZM315.719 59.2533V64.2533C315.719 64.9163 315.455 65.5522 314.987 66.021C314.518 66.4899 313.882 66.7533 313.219 66.7533C312.556 66.7533 311.92 66.4899 311.451 66.021C310.982 65.5522 310.719 64.9163 310.719 64.2533V59.2533C310.719 58.5902 310.982 57.9543 311.451 57.4855C311.92 57.0166 312.556 56.7533 313.219 56.7533C313.882 56.7533 314.518 57.0166 314.987 57.4855C315.455 57.9543 315.719 58.5902 315.719 59.2533ZM325.719 59.2533V64.2533C325.719 64.9163 325.455 65.5522 324.987 66.021C324.518 66.4899 323.882 66.7533 323.219 66.7533C322.556 66.7533 321.92 66.4899 321.451 66.021C320.982 65.5522 320.719 64.9163 320.719 64.2533V59.2533C320.719 58.5902 320.982 57.9543 321.451 57.4855C321.92 57.0166 322.556 56.7533 323.219 56.7533C323.882 56.7533 324.518 57.0166 324.987 57.4855C325.455 57.9543 325.719 58.5902 325.719 59.2533Z" fill="#B5D1FF"/>
<path d="M427.594 75.25C423.659 75.25 420.469 72.06 420.469 68.125V20.625C420.469 19.3133 421.532 18.25 422.844 18.25C423.474 18.25 424.078 17.9998 424.523 17.5544C424.969 17.109 425.219 16.5049 425.219 15.875C425.219 15.2451 424.969 14.641 424.523 14.1956C424.078 13.7502 423.474 13.5 422.844 13.5H370.594C369.964 13.5 369.36 13.7502 368.914 14.1956C368.469 14.641 368.219 15.2451 368.219 15.875C368.219 16.5049 368.469 17.109 368.914 17.5544C369.36 17.9998 369.964 18.25 370.594 18.25C371.905 18.25 372.969 19.3133 372.969 20.625V68.125C372.969 72.06 369.779 75.25 365.844 75.25C365.214 75.25 364.61 75.5002 364.164 75.9456C363.719 76.391 363.469 76.9951 363.469 77.625C363.469 78.2549 363.719 78.859 364.164 79.3044C364.61 79.7498 365.214 80 365.844 80H427.594C428.224 80 428.828 79.7498 429.273 79.3044C429.719 78.859 429.969 78.2549 429.969 77.625C429.969 76.9951 429.719 76.391 429.273 75.9456C428.828 75.5002 428.224 75.25 427.594 75.25ZM377.719 26.25C377.719 21.8317 381.3 18.25 385.719 18.25H407.719C412.137 18.25 415.719 21.8317 415.719 26.25V70.5C415.719 73.1234 413.592 75.25 410.969 75.25C408.345 75.25 406.219 73.1234 406.219 70.5V63.375C406.219 62.7451 405.969 62.141 405.523 61.6956C405.078 61.2502 404.474 61 403.844 61H389.594C388.964 61 388.36 61.2502 387.914 61.6956C387.469 62.141 387.219 62.7451 387.219 63.375V70.5C387.219 73.1234 385.092 75.25 382.469 75.25C379.845 75.25 377.719 73.1234 377.719 70.5V26.25ZM401.469 70.5C401.469 73.1234 399.342 75.25 396.719 75.25C394.095 75.25 391.969 73.1234 391.969 70.5C391.969 67.8766 394.095 65.75 396.719 65.75C399.342 65.75 401.469 67.8766 401.469 70.5ZM384.844 27.75C384.844 27.1201 385.094 26.516 385.539 26.0706C385.985 25.6252 386.589 25.375 387.219 25.375H391.969C392.599 25.375 393.203 25.6252 393.648 26.0706C394.094 26.516 394.344 27.1201 394.344 27.75C394.344 28.3799 394.094 28.984 393.648 29.4294C393.203 29.8748 392.599 30.125 391.969 30.125H387.219C386.589 30.125 385.985 29.8748 385.539 29.4294C385.094 28.984 384.844 28.3799 384.844 27.75ZM399.094 27.75C399.094 27.1201 399.344 26.516 399.789 26.0706C400.235 25.6252 400.839 25.375 401.469 25.375H406.219C406.849 25.375 407.453 25.6252 407.898 26.0706C408.344 26.516 408.594 27.1201 408.594 27.75C408.594 28.3799 408.344 28.984 407.898 29.4294C407.453 29.8748 406.849 30.125 406.219 30.125H401.469C400.839 30.125 400.235 29.8748 399.789 29.4294C399.344 28.984 399.094 28.3799 399.094 27.75ZM384.844 39.625C384.844 38.9951 385.094 38.391 385.539 37.9456C385.985 37.5002 386.589 37.25 387.219 37.25H391.969C392.599 37.25 393.203 37.5002 393.648 37.9456C394.094 38.391 394.344 38.9951 394.344 39.625C394.344 40.2549 394.094 40.859 393.648 41.3044C393.203 41.7498 392.599 42 391.969 42H387.219C386.589 42 385.985 41.7498 385.539 41.3044C385.094 40.859 384.844 40.2549 384.844 39.625ZM399.094 39.625C399.094 38.9951 399.344 38.391 399.789 37.9456C400.235 37.5002 400.839 37.25 401.469 37.25H406.219C406.849 37.25 407.453 37.5002 407.898 37.9456C408.344 38.391 408.594 38.9951 408.594 39.625C408.594 40.2549 408.344 40.859 407.898 41.3044C407.453 41.7498 406.849 42 406.219 42H401.469C400.839 42 400.235 41.7498 399.789 41.3044C399.344 40.859 399.094 40.2549 399.094 39.625ZM384.844 51.5C384.844 50.8701 385.094 50.266 385.539 49.8206C385.985 49.3752 386.589 49.125 387.219 49.125H391.969C392.599 49.125 393.203 49.3752 393.648 49.8206C394.094 50.266 394.344 50.8701 394.344 51.5C394.344 52.1299 394.094 52.734 393.648 53.1794C393.203 53.6248 392.599 53.875 391.969 53.875H387.219C386.589 53.875 385.985 53.6248 385.539 53.1794C385.094 52.734 384.844 52.1299 384.844 51.5ZM399.094 51.5C399.094 50.8701 399.344 50.266 399.789 49.8206C400.235 49.3752 400.839 49.125 401.469 49.125H406.219C406.849 49.125 407.453 49.3752 407.898 49.8206C408.344 50.266 408.594 50.8701 408.594 51.5C408.594 52.1299 408.344 52.734 407.898 53.1794C407.453 53.6248 406.849 53.875 406.219 53.875H401.469C400.839 53.875 400.235 53.6248 399.789 53.1794C399.344 52.734 399.094 52.1299 399.094 51.5Z" fill="#B5D1FF"/>
<path d="M499.416 72.3164C498.004 72.3164 496.859 71.1718 496.859 69.7598V33.9668C496.859 33.2887 496.59 32.6384 496.111 32.159C495.631 31.6795 494.981 31.4102 494.303 31.4102H473.85C473.172 31.4102 472.521 31.6795 472.042 32.159C471.562 32.6384 471.293 33.2887 471.293 33.9668V39.0801C471.293 43.3161 467.859 46.75 463.623 46.75C459.387 46.75 455.953 43.3161 455.953 39.0801V18.627C455.953 17.9489 455.684 17.2986 455.204 16.8191C454.725 16.3397 454.075 16.0703 453.396 16.0703H432.943C432.265 16.0703 431.615 16.3397 431.136 16.8191C430.656 17.2986 430.387 17.9489 430.387 18.627V69.7598C430.387 71.1718 429.242 72.3164 427.83 72.3164C427.152 72.3164 426.502 72.5858 426.022 73.0652C425.543 73.5447 425.273 74.195 425.273 74.873C425.273 75.5511 425.543 76.2014 426.022 76.6809C426.502 77.1603 427.152 77.4297 427.83 77.4297H499.416C500.094 77.4297 500.744 77.1603 501.224 76.6809C501.703 76.2014 501.973 75.5511 501.973 74.873C501.973 74.195 501.703 73.5447 501.224 73.0652C500.744 72.5858 500.094 72.3164 499.416 72.3164ZM476.406 44.1934C476.406 39.9574 479.84 36.5234 484.076 36.5234C488.312 36.5234 491.746 39.9574 491.746 44.1934V64.6465C491.746 68.8825 488.312 72.3164 484.076 72.3164C479.84 72.3164 476.406 68.8825 476.406 64.6465V44.1934ZM463.623 51.8633C467.859 51.8633 471.293 55.2972 471.293 59.5332V64.6465C471.293 68.8825 467.859 72.3164 463.623 72.3164C459.387 72.3164 455.953 68.8825 455.953 64.6465V59.5332C455.953 55.2972 459.387 51.8633 463.623 51.8633ZM435.5 28.8535C435.5 24.6175 438.934 21.1836 443.17 21.1836C447.406 21.1836 450.84 24.6175 450.84 28.8535V64.6465C450.84 68.8825 447.406 72.3164 443.17 72.3164C438.934 72.3164 435.5 68.8825 435.5 64.6465V28.8535ZM445.727 28.8535V33.9668C445.727 34.6449 445.457 35.2952 444.978 35.7746C444.498 36.2541 443.848 36.5234 443.17 36.5234C442.492 36.5234 441.842 36.2541 441.362 35.7746C440.883 35.2952 440.613 34.6449 440.613 33.9668V28.8535C440.613 28.1755 440.883 27.5252 441.362 27.0457C441.842 26.5662 442.492 26.2969 443.17 26.2969C443.848 26.2969 444.498 26.5662 444.978 27.0457C445.457 27.5252 445.727 28.1755 445.727 28.8535ZM445.727 44.1934V49.3066C445.727 49.9847 445.457 50.635 444.978 51.1145C444.498 51.5939 443.848 51.8633 443.17 51.8633C442.492 51.8633 441.842 51.5939 441.362 51.1145C440.883 50.635 440.613 49.9847 440.613 49.3066V44.1934C440.613 43.5153 440.883 42.865 441.362 42.3855C441.842 41.9061 442.492 41.6367 443.17 41.6367C443.848 41.6367 444.498 41.9061 444.978 42.3855C445.457 42.865 445.727 43.5153 445.727 44.1934ZM445.727 59.5332V64.6465C445.727 65.3245 445.457 65.9748 444.978 66.4543C444.498 66.9338 443.848 67.2031 443.17 67.2031C442.492 67.2031 441.842 66.9338 441.362 66.4543C440.883 65.9748 440.613 65.3245 440.613 64.6465V59.5332C440.613 58.8551 440.883 58.2048 441.362 57.7254C441.842 57.2459 442.492 56.9766 443.17 56.9766C443.848 56.9766 444.498 57.2459 444.978 57.7254C445.457 58.2048 445.727 58.8551 445.727 59.5332ZM461.066 64.6465V59.5332C461.066 58.8551 461.336 58.2048 461.815 57.7254C462.295 57.2459 462.945 56.9766 463.623 56.9766C464.301 56.9766 464.951 57.2459 465.431 57.7254C465.91 58.2048 466.18 58.8551 466.18 59.5332V64.6465C466.18 65.3245 465.91 65.9748 465.431 66.4543C464.951 66.9338 464.301 67.2031 463.623 67.2031C462.945 67.2031 462.295 66.9338 461.815 66.4543C461.336 65.9748 461.066 65.3245 461.066 64.6465ZM481.52 64.6465V59.5332C481.52 58.8551 481.789 58.2048 482.268 57.7254C482.748 57.2459 483.398 56.9766 484.076 56.9766C484.754 56.9766 485.405 57.2459 485.884 57.7254C486.363 58.2048 486.633 58.8551 486.633 59.5332V64.6465C486.633 65.3245 486.363 65.9748 485.884 66.4543C485.405 66.9338 484.754 67.2031 484.076 67.2031C483.398 67.2031 482.748 66.9338 482.268 66.4543C481.789 65.9748 481.52 65.3245 481.52 64.6465ZM481.52 49.3066V44.1934C481.52 43.5153 481.789 42.865 482.268 42.3855C482.748 41.9061 483.398 41.6367 484.076 41.6367C484.754 41.6367 485.405 41.9061 485.884 42.3855C486.363 42.865 486.633 43.5153 486.633 44.1934V49.3066C486.633 49.9847 486.363 50.635 485.884 51.1145C485.405 51.5939 484.754 51.8633 484.076 51.8633C483.398 51.8633 482.748 51.5939 482.268 51.1145C481.789 50.635 481.52 49.9847 481.52 49.3066Z" fill="#B5D1FF"/>
<g clip-path="url(#clip1_658_35091)">
<path d="M583.109 75.9688C579.882 75.9688 577.266 73.3524 577.266 70.125V37.3573C577.266 36.0899 578.436 35.1029 579.332 34.2067C579.88 33.6587 580.188 32.9156 580.188 32.1406C580.188 31.3657 579.88 30.6225 579.332 30.0745C578.784 29.5266 578.041 29.2188 577.266 29.2188H565.578C562.351 29.2188 559.734 26.6024 559.734 23.375V19.826C559.734 18.5587 560.904 17.5716 561.8 16.6755C562.348 16.1275 562.656 15.3843 562.656 14.6094C562.656 13.8344 562.348 13.0913 561.8 12.5433C561.252 11.9953 560.509 11.6875 559.734 11.6875H507.141C506.366 11.6875 505.623 11.9953 505.075 12.5433C504.527 13.0913 504.219 13.8344 504.219 14.6094C504.219 15.3843 504.527 16.1275 505.075 16.6755C505.971 17.5716 507.141 18.5587 507.141 19.826V70.125C507.141 73.3524 504.524 75.9688 501.297 75.9688C500.522 75.9688 499.779 76.2766 499.231 76.8245C498.683 77.3725 498.375 78.1157 498.375 78.8906C498.375 79.6656 498.683 80.4087 499.231 80.9567C499.779 81.5047 500.522 81.8125 501.297 81.8125H583.109C583.884 81.8125 584.627 81.5047 585.175 80.9567C585.723 80.4087 586.031 79.6656 586.031 78.8906C586.031 78.1157 585.723 77.3725 585.175 76.8245C584.627 76.2766 583.884 75.9688 583.109 75.9688ZM565.578 35.0625C568.806 35.0625 571.422 37.6788 571.422 40.9062V70.125C571.422 73.3524 568.806 75.9688 565.578 75.9688C562.351 75.9688 559.734 73.3524 559.734 70.125V40.9062C559.734 37.6788 562.351 35.0625 565.578 35.0625ZM512.984 25.5312C512.984 21.113 516.566 17.5312 520.984 17.5312H545.891C550.309 17.5312 553.891 21.113 553.891 25.5312V71.5859C553.891 74.0065 551.928 75.9688 549.508 75.9688C547.087 75.9688 545.125 74.0065 545.125 71.5859V58.4375C545.125 57.6626 544.817 56.9194 544.269 56.3714C543.721 55.8235 542.978 55.5156 542.203 55.5156H524.672C523.897 55.5156 523.154 55.8235 522.606 56.3714C522.058 56.9194 521.75 57.6626 521.75 58.4375V71.5859C521.75 74.0065 519.788 75.9688 517.367 75.9688C514.947 75.9688 512.984 74.0065 512.984 71.5859V25.5312ZM539.281 70.125C539.281 73.3524 536.665 75.9688 533.438 75.9688C530.21 75.9688 527.594 73.3524 527.594 70.125V67.2031C527.594 63.9757 530.21 61.3594 533.438 61.3594C536.665 61.3594 539.281 63.9757 539.281 67.2031V70.125ZM518.828 29.2188C518.828 28.4438 519.136 27.7006 519.684 27.1527C520.232 26.6047 520.975 26.2969 521.75 26.2969H527.594C528.369 26.2969 529.112 26.6047 529.66 27.1527C530.208 27.7006 530.516 28.4438 530.516 29.2188C530.516 29.9937 530.208 30.7369 529.66 31.2848C529.112 31.8328 528.369 32.1406 527.594 32.1406H521.75C520.975 32.1406 520.232 31.8328 519.684 31.2848C519.136 30.7369 518.828 29.9937 518.828 29.2188ZM536.359 29.2188C536.359 28.4438 536.667 27.7006 537.215 27.1527C537.763 26.6047 538.506 26.2969 539.281 26.2969H545.125C545.9 26.2969 546.643 26.6047 547.191 27.1527C547.739 27.7006 548.047 28.4438 548.047 29.2188C548.047 29.9937 547.739 30.7369 547.191 31.2848C546.643 31.8328 545.9 32.1406 545.125 32.1406H539.281C538.506 32.1406 537.763 31.8328 537.215 31.2848C536.667 30.7369 536.359 29.9937 536.359 29.2188ZM518.828 43.8281C518.828 43.0532 519.136 42.31 519.684 41.762C520.232 41.2141 520.975 40.9062 521.75 40.9062H527.594C528.369 40.9062 529.112 41.2141 529.66 41.762C530.208 42.31 530.516 43.0532 530.516 43.8281C530.516 44.6031 530.208 45.3462 529.66 45.8942C529.112 46.4422 528.369 46.75 527.594 46.75H521.75C520.975 46.75 520.232 46.4422 519.684 45.8942C519.136 45.3462 518.828 44.6031 518.828 43.8281ZM536.359 43.8281C536.359 43.0532 536.667 42.31 537.215 41.762C537.763 41.2141 538.506 40.9062 539.281 40.9062H545.125C545.9 40.9062 546.643 41.2141 547.191 41.762C547.739 42.31 548.047 43.0532 548.047 43.8281C548.047 44.6031 547.739 45.3462 547.191 45.8942C546.643 46.4422 545.9 46.75 545.125 46.75H539.281C538.506 46.75 537.763 46.4422 537.215 45.8942C536.667 45.3462 536.359 44.6031 536.359 43.8281Z" fill="#B5D1FF"/>
</g>
<path d="M609.828 61.5625C609.828 62.2173 609.568 62.8452 609.105 63.3082C608.642 63.7712 608.014 64.0312 607.359 64.0312H598.719C598.064 64.0312 597.436 63.7712 596.973 63.3082C596.51 62.8452 596.25 62.2173 596.25 61.5625C596.25 60.9077 596.51 60.2798 596.973 59.8168C597.436 59.3538 598.064 59.0938 598.719 59.0938H607.359C608.014 59.0938 608.642 59.3538 609.105 59.8168C609.568 60.2798 609.828 60.9077 609.828 61.5625ZM628.344 59.0938H619.703C619.048 59.0938 618.42 59.3538 617.957 59.8168C617.494 60.2798 617.234 60.9077 617.234 61.5625C617.234 62.2173 617.494 62.8452 617.957 63.3082C618.42 63.7712 619.048 64.0312 619.703 64.0312H628.344C628.999 64.0312 629.626 63.7712 630.089 63.3082C630.552 62.8452 630.812 62.2173 630.812 61.5625C630.812 60.9077 630.552 60.2798 630.089 59.8168C629.626 59.3538 628.999 59.0938 628.344 59.0938ZM648.094 73.9062C648.094 74.561 647.834 75.1889 647.371 75.6519C646.908 76.1149 646.28 76.375 645.625 76.375H581.438C580.783 76.375 580.155 76.1149 579.692 75.6519C579.229 75.1889 578.969 74.561 578.969 73.9062C578.969 73.2515 579.229 72.6236 579.692 72.1606C580.155 71.6976 580.783 71.4375 581.438 71.4375C582.801 71.4375 583.906 70.3322 583.906 68.9688V34.4062C583.906 33.9478 584.034 33.4984 584.275 33.1084C584.516 32.7183 584.861 32.4032 585.271 32.1981C585.681 31.9931 586.14 31.9063 586.597 31.9475C587.053 31.9886 587.489 32.1562 587.856 32.4312L595.756 38.3562C599.011 40.7975 603.656 38.475 603.656 34.4062C603.656 33.9478 603.784 33.4984 604.025 33.1084C604.266 32.7183 604.611 32.4032 605.021 32.1981C605.431 31.9931 605.89 31.9063 606.347 31.9475C606.803 31.9886 607.239 32.1562 607.606 32.4312L608.753 33.2911C613.617 36.9387 620.612 34.0412 621.472 28.0222L623.129 16.4276C623.301 15.2529 623.889 14.1792 624.786 13.4012C625.683 12.6232 626.829 12.1926 628.017 12.1875H633.608C634.796 12.1926 635.942 12.6232 636.839 13.4012C637.736 14.1792 638.324 15.2529 638.496 16.4276L643.125 48.87C643.125 48.87 643.15 49.1107 643.15 49.2188V68.9688C643.15 70.3322 644.255 71.4375 645.619 71.4375C645.944 71.4367 646.265 71.4999 646.565 71.6236C646.866 71.7473 647.139 71.9291 647.368 72.1584C647.598 72.3877 647.781 72.6601 647.905 72.9601C648.03 73.26 648.094 73.5815 648.094 73.9062ZM624.364 42.691C624.181 43.9762 624.712 45.2593 625.75 46.0384C626.366 46.5003 627.115 46.75 627.885 46.75H629.198C633.761 46.75 637.265 42.7093 636.619 38.1932L634.004 19.8927C633.777 18.3046 632.417 17.125 630.813 17.125C629.208 17.125 627.848 18.3047 627.621 19.8928L624.364 42.691ZM588.844 63.4375C588.844 67.8558 592.425 71.4375 596.844 71.4375H630.219C634.637 71.4375 638.219 67.8558 638.219 63.4375V59.6875C638.219 55.2692 634.637 51.6875 630.219 51.6875H625.875C625.341 51.6875 624.821 51.5142 624.394 51.1937L619.95 47.8609L616.494 45.2687C613.239 42.8275 608.594 45.15 608.594 49.2188C608.594 49.6772 608.466 50.1266 608.225 50.5167C607.984 50.9067 607.639 51.2218 607.229 51.4269C606.819 51.6319 606.36 51.7187 605.903 51.6775C605.447 51.6364 605.011 51.4688 604.644 51.1937L601.644 48.9437C596.37 44.9883 588.844 48.7514 588.844 55.3438V63.4375Z" fill="#B5D1FF"/>
<path d="M717.729 72.3164C716.317 72.3164 715.172 71.1718 715.172 69.7598V33.9668C715.172 33.2887 714.903 32.6384 714.423 32.159C713.944 31.6795 713.293 31.4102 712.615 31.4102H692.162C691.484 31.4102 690.834 31.6795 690.354 32.159C689.875 32.6384 689.605 33.2887 689.605 33.9668V39.0801C689.605 43.3161 686.172 46.75 681.936 46.75C677.7 46.75 674.266 43.3161 674.266 39.0801V18.627C674.266 17.9489 673.996 17.2986 673.517 16.8191C673.037 16.3397 672.387 16.0703 671.709 16.0703H651.256C650.578 16.0703 649.928 16.3397 649.448 16.8191C648.969 17.2986 648.699 17.9489 648.699 18.627V69.7598C648.699 71.1718 647.555 72.3164 646.143 72.3164C645.465 72.3164 644.814 72.5858 644.335 73.0652C643.855 73.5447 643.586 74.195 643.586 74.873C643.586 75.5511 643.855 76.2014 644.335 76.6809C644.814 77.1603 645.465 77.4297 646.143 77.4297H717.729C718.407 77.4297 719.057 77.1603 719.536 76.6809C720.016 76.2014 720.285 75.5511 720.285 74.873C720.285 74.195 720.016 73.5447 719.536 73.0652C719.057 72.5858 718.407 72.3164 717.729 72.3164ZM694.719 44.1934C694.719 39.9574 698.153 36.5234 702.389 36.5234C706.625 36.5234 710.059 39.9574 710.059 44.1934V64.6465C710.059 68.8825 706.625 72.3164 702.389 72.3164C698.153 72.3164 694.719 68.8825 694.719 64.6465V44.1934ZM681.936 51.8633C686.172 51.8633 689.605 55.2972 689.605 59.5332V64.6465C689.605 68.8825 686.172 72.3164 681.936 72.3164C677.7 72.3164 674.266 68.8825 674.266 64.6465V59.5332C674.266 55.2972 677.7 51.8633 681.936 51.8633ZM653.812 28.8535C653.812 24.6175 657.246 21.1836 661.482 21.1836C665.718 21.1836 669.152 24.6175 669.152 28.8535V64.6465C669.152 68.8825 665.718 72.3164 661.482 72.3164C657.246 72.3164 653.812 68.8825 653.812 64.6465V28.8535ZM664.039 28.8535V33.9668C664.039 34.6449 663.77 35.2952 663.29 35.7746C662.811 36.2541 662.16 36.5234 661.482 36.5234C660.804 36.5234 660.154 36.2541 659.675 35.7746C659.195 35.2952 658.926 34.6449 658.926 33.9668V28.8535C658.926 28.1755 659.195 27.5252 659.675 27.0457C660.154 26.5662 660.804 26.2969 661.482 26.2969C662.16 26.2969 662.811 26.5662 663.29 27.0457C663.77 27.5252 664.039 28.1755 664.039 28.8535ZM664.039 44.1934V49.3066C664.039 49.9847 663.77 50.635 663.29 51.1145C662.811 51.5939 662.16 51.8633 661.482 51.8633C660.804 51.8633 660.154 51.5939 659.675 51.1145C659.195 50.635 658.926 49.9847 658.926 49.3066V44.1934C658.926 43.5153 659.195 42.865 659.675 42.3855C660.154 41.9061 660.804 41.6367 661.482 41.6367C662.16 41.6367 662.811 41.9061 663.29 42.3855C663.77 42.865 664.039 43.5153 664.039 44.1934ZM664.039 59.5332V64.6465C664.039 65.3245 663.77 65.9748 663.29 66.4543C662.811 66.9338 662.16 67.2031 661.482 67.2031C660.804 67.2031 660.154 66.9338 659.675 66.4543C659.195 65.9748 658.926 65.3245 658.926 64.6465V59.5332C658.926 58.8551 659.195 58.2048 659.675 57.7254C660.154 57.2459 660.804 56.9766 661.482 56.9766C662.16 56.9766 662.811 57.2459 663.29 57.7254C663.77 58.2048 664.039 58.8551 664.039 59.5332ZM679.379 64.6465V59.5332C679.379 58.8551 679.648 58.2048 680.128 57.7254C680.607 57.2459 681.257 56.9766 681.936 56.9766C682.614 56.9766 683.264 57.2459 683.743 57.7254C684.223 58.2048 684.492 58.8551 684.492 59.5332V64.6465C684.492 65.3245 684.223 65.9748 683.743 66.4543C683.264 66.9338 682.614 67.2031 681.936 67.2031C681.257 67.2031 680.607 66.9338 680.128 66.4543C679.648 65.9748 679.379 65.3245 679.379 64.6465ZM699.832 64.6465V59.5332C699.832 58.8551 700.101 58.2048 700.581 57.7254C701.06 57.2459 701.711 56.9766 702.389 56.9766C703.067 56.9766 703.717 57.2459 704.196 57.7254C704.676 58.2048 704.945 58.8551 704.945 59.5332V64.6465C704.945 65.3245 704.676 65.9748 704.196 66.4543C703.717 66.9338 703.067 67.2031 702.389 67.2031C701.711 67.2031 701.06 66.9338 700.581 66.4543C700.101 65.9748 699.832 65.3245 699.832 64.6465ZM699.832 49.3066V44.1934C699.832 43.5153 700.101 42.865 700.581 42.3855C701.06 41.9061 701.711 41.6367 702.389 41.6367C703.067 41.6367 703.717 41.9061 704.196 42.3855C704.676 42.865 704.945 43.5153 704.945 44.1934V49.3066C704.945 49.9847 704.676 50.635 704.196 51.1145C703.717 51.5939 703.067 51.8633 702.389 51.8633C701.711 51.8633 701.06 51.5939 700.581 51.1145C700.101 50.635 699.832 49.9847 699.832 49.3066Z" fill="#B5D1FF"/>
<path d="M746.641 61.5625C746.641 62.2173 746.381 62.8452 745.918 63.3082C745.455 63.7712 744.827 64.0312 744.172 64.0312H735.531C734.876 64.0312 734.249 63.7712 733.786 63.3082C733.323 62.8452 733.062 62.2173 733.062 61.5625C733.062 60.9077 733.323 60.2798 733.786 59.8168C734.249 59.3538 734.876 59.0938 735.531 59.0938H744.172C744.827 59.0938 745.455 59.3538 745.918 59.8168C746.381 60.2798 746.641 60.9077 746.641 61.5625ZM765.156 59.0938H756.516C755.861 59.0938 755.233 59.3538 754.77 59.8168C754.307 60.2798 754.047 60.9077 754.047 61.5625C754.047 62.2173 754.307 62.8452 754.77 63.3082C755.233 63.7712 755.861 64.0312 756.516 64.0312H765.156C765.811 64.0312 766.439 63.7712 766.902 63.3082C767.365 62.8452 767.625 62.2173 767.625 61.5625C767.625 60.9077 767.365 60.2798 766.902 59.8168C766.439 59.3538 765.811 59.0938 765.156 59.0938ZM784.906 73.9062C784.906 74.561 784.646 75.1889 784.183 75.6519C783.72 76.1149 783.092 76.375 782.438 76.375H718.25C717.595 76.375 716.967 76.1149 716.504 75.6519C716.041 75.1889 715.781 74.561 715.781 73.9062C715.781 73.2515 716.041 72.6236 716.504 72.1606C716.967 71.6976 717.595 71.4375 718.25 71.4375C719.613 71.4375 720.719 70.3322 720.719 68.9688V34.4062C720.719 33.9478 720.846 33.4984 721.087 33.1084C721.328 32.7183 721.673 32.4032 722.083 32.1981C722.494 31.9931 722.953 31.9063 723.409 31.9475C723.866 31.9886 724.302 32.1562 724.669 32.4312L732.569 38.3562C735.824 40.7975 740.469 38.475 740.469 34.4062C740.469 33.9478 740.596 33.4984 740.837 33.1084C741.078 32.7183 741.423 32.4032 741.833 32.1981C742.244 31.9931 742.703 31.9063 743.159 31.9475C743.616 31.9886 744.052 32.1562 744.419 32.4312L745.565 33.2911C750.43 36.9387 757.424 34.0412 758.284 28.0222L759.941 16.4276C760.114 15.2529 760.702 14.1792 761.599 13.4012C762.496 12.6232 763.642 12.1926 764.829 12.1875H770.421C771.608 12.1926 772.754 12.6232 773.651 13.4012C774.548 14.1792 775.136 15.2529 775.309 16.4276L779.938 48.87C779.938 48.87 779.963 49.1107 779.963 49.2188V68.9688C779.963 70.3322 781.068 71.4375 782.431 71.4375C782.756 71.4367 783.078 71.4999 783.378 71.6236C783.678 71.7473 783.951 71.9291 784.181 72.1584C784.411 72.3877 784.593 72.6601 784.718 72.9601C784.842 73.26 784.906 73.5815 784.906 73.9062ZM761.177 42.691C760.993 43.9762 761.525 45.2593 762.563 46.0384C763.179 46.5003 763.928 46.75 764.697 46.75H766.011C770.573 46.75 774.077 42.7093 773.432 38.1932L770.816 19.8927C770.589 18.3046 769.229 17.125 767.625 17.125C766.021 17.125 764.661 18.3047 764.434 19.8928L761.177 42.691ZM725.656 63.4375C725.656 67.8558 729.238 71.4375 733.656 71.4375H767.031C771.45 71.4375 775.031 67.8558 775.031 63.4375V59.6875C775.031 55.2692 771.45 51.6875 767.031 51.6875H762.688C762.153 51.6875 761.634 51.5142 761.206 51.1937L756.763 47.8609L753.306 45.2687C750.051 42.8275 745.406 45.15 745.406 49.2188C745.406 49.6772 745.279 50.1266 745.038 50.5167C744.797 50.9067 744.452 51.2218 744.042 51.4269C743.631 51.6319 743.172 51.7187 742.716 51.6775C742.259 51.6364 741.823 51.4688 741.456 51.1937L738.456 48.9437C733.182 44.9883 725.656 48.7514 725.656 55.3438V63.4375Z" fill="#B5D1FF"/>
<path d="M846.719 75.25C842.784 75.25 839.594 72.06 839.594 68.125V20.625C839.594 19.3133 840.657 18.25 841.969 18.25C842.599 18.25 843.203 17.9998 843.648 17.5544C844.094 17.109 844.344 16.5049 844.344 15.875C844.344 15.2451 844.094 14.641 843.648 14.1956C843.203 13.7502 842.599 13.5 841.969 13.5H789.719C789.089 13.5 788.485 13.7502 788.039 14.1956C787.594 14.641 787.344 15.2451 787.344 15.875C787.344 16.5049 787.594 17.109 788.039 17.5544C788.485 17.9998 789.089 18.25 789.719 18.25C791.03 18.25 792.094 19.3133 792.094 20.625V68.125C792.094 72.06 788.904 75.25 784.969 75.25C784.339 75.25 783.735 75.5002 783.289 75.9456C782.844 76.391 782.594 76.9951 782.594 77.625C782.594 78.2549 782.844 78.859 783.289 79.3044C783.735 79.7498 784.339 80 784.969 80H846.719C847.349 80 847.953 79.7498 848.398 79.3044C848.844 78.859 849.094 78.2549 849.094 77.625C849.094 76.9951 848.844 76.391 848.398 75.9456C847.953 75.5002 847.349 75.25 846.719 75.25ZM796.844 26.25C796.844 21.8317 800.425 18.25 804.844 18.25H826.844C831.262 18.25 834.844 21.8317 834.844 26.25V70.5C834.844 73.1234 832.717 75.25 830.094 75.25C827.47 75.25 825.344 73.1234 825.344 70.5V63.375C825.344 62.7451 825.094 62.141 824.648 61.6956C824.203 61.2502 823.599 61 822.969 61H808.719C808.089 61 807.485 61.2502 807.039 61.6956C806.594 62.141 806.344 62.7451 806.344 63.375V70.5C806.344 73.1234 804.217 75.25 801.594 75.25C798.97 75.25 796.844 73.1234 796.844 70.5V26.25ZM820.594 70.5C820.594 73.1234 818.467 75.25 815.844 75.25C813.22 75.25 811.094 73.1234 811.094 70.5C811.094 67.8766 813.22 65.75 815.844 65.75C818.467 65.75 820.594 67.8766 820.594 70.5ZM803.969 27.75C803.969 27.1201 804.219 26.516 804.664 26.0706C805.11 25.6252 805.714 25.375 806.344 25.375H811.094C811.724 25.375 812.328 25.6252 812.773 26.0706C813.219 26.516 813.469 27.1201 813.469 27.75C813.469 28.3799 813.219 28.984 812.773 29.4294C812.328 29.8748 811.724 30.125 811.094 30.125H806.344C805.714 30.125 805.11 29.8748 804.664 29.4294C804.219 28.984 803.969 28.3799 803.969 27.75ZM818.219 27.75C818.219 27.1201 818.469 26.516 818.914 26.0706C819.36 25.6252 819.964 25.375 820.594 25.375H825.344C825.974 25.375 826.578 25.6252 827.023 26.0706C827.469 26.516 827.719 27.1201 827.719 27.75C827.719 28.3799 827.469 28.984 827.023 29.4294C826.578 29.8748 825.974 30.125 825.344 30.125H820.594C819.964 30.125 819.36 29.8748 818.914 29.4294C818.469 28.984 818.219 28.3799 818.219 27.75ZM803.969 39.625C803.969 38.9951 804.219 38.391 804.664 37.9456C805.11 37.5002 805.714 37.25 806.344 37.25H811.094C811.724 37.25 812.328 37.5002 812.773 37.9456C813.219 38.391 813.469 38.9951 813.469 39.625C813.469 40.2549 813.219 40.859 812.773 41.3044C812.328 41.7498 811.724 42 811.094 42H806.344C805.714 42 805.11 41.7498 804.664 41.3044C804.219 40.859 803.969 40.2549 803.969 39.625ZM818.219 39.625C818.219 38.9951 818.469 38.391 818.914 37.9456C819.36 37.5002 819.964 37.25 820.594 37.25H825.344C825.974 37.25 826.578 37.5002 827.023 37.9456C827.469 38.391 827.719 38.9951 827.719 39.625C827.719 40.2549 827.469 40.859 827.023 41.3044C826.578 41.7498 825.974 42 825.344 42H820.594C819.964 42 819.36 41.7498 818.914 41.3044C818.469 40.859 818.219 40.2549 818.219 39.625ZM803.969 51.5C803.969 50.8701 804.219 50.266 804.664 49.8206C805.11 49.3752 805.714 49.125 806.344 49.125H811.094C811.724 49.125 812.328 49.3752 812.773 49.8206C813.219 50.266 813.469 50.8701 813.469 51.5C813.469 52.1299 813.219 52.734 812.773 53.1794C812.328 53.6248 811.724 53.875 811.094 53.875H806.344C805.714 53.875 805.11 53.6248 804.664 53.1794C804.219 52.734 803.969 52.1299 803.969 51.5ZM818.219 51.5C818.219 50.8701 818.469 50.266 818.914 49.8206C819.36 49.3752 819.964 49.125 820.594 49.125H825.344C825.974 49.125 826.578 49.3752 827.023 49.8206C827.469 50.266 827.719 50.8701 827.719 51.5C827.719 52.1299 827.469 52.734 827.023 53.1794C826.578 53.6248 825.974 53.875 825.344 53.875H820.594C819.964 53.875 819.36 53.6248 818.914 53.1794C818.469 52.734 818.219 52.1299 818.219 51.5Z" fill="#B5D1FF"/>
<defs>
<clipPath id="clip0_658_35091">
<rect width="93.5" height="93.5" fill="white" transform="translate(209.219)"/>
</clipPath>
<clipPath id="clip1_658_35091">
<rect width="93.5" height="93.5" fill="white" transform="translate(492.531)"/>
</clipPath>
</defs>
</svg>
