<svg width="16" height="16" viewBox="0 0 16 16" fill="none" xmlns="http://www.w3.org/2000/svg">
<g clip-path="url(#clip0_603_36218)">
<path d="M8 10C9.10457 10 10 9.10457 10 8C10 6.89543 9.10457 6 8 6C6.89543 6 6 6.89543 6 8C6 9.10457 6.89543 10 8 10Z" stroke="#676D72" stroke-opacity="0.7" stroke-linecap="round" stroke-linejoin="round"/>
<path d="M15 4H1V12H15V4Z" stroke="#676D72" stroke-opacity="0.7" stroke-linecap="round" stroke-linejoin="round"/>
<path d="M15 6.5C14.3754 6.39414 13.7992 6.09663 13.3513 5.64869C12.9034 5.20075 12.6059 4.62457 12.5 4" stroke="#676D72" stroke-opacity="0.7" stroke-linecap="round" stroke-linejoin="round"/>
<path d="M12.5 12C12.6059 11.3754 12.9034 10.7992 13.3513 10.3513C13.7992 9.90337 14.3754 9.60586 15 9.5" stroke="#676D72" stroke-opacity="0.7" stroke-linecap="round" stroke-linejoin="round"/>
<path d="M1 9.5C1.62457 9.60586 2.20075 9.90337 2.64869 10.3513C3.09663 10.7992 3.39414 11.3754 3.5 12" stroke="#676D72" stroke-opacity="0.7" stroke-linecap="round" stroke-linejoin="round"/>
<path d="M3.5 4C3.39414 4.62457 3.09663 5.20075 2.64869 5.64869C2.20075 6.09663 1.62457 6.39414 1 6.5" stroke="#676D72" stroke-opacity="0.7" stroke-linecap="round" stroke-linejoin="round"/>
</g>
<defs>
<clipPath id="clip0_603_36218">
<rect width="16" height="16" fill="white"/>
</clipPath>
</defs>
</svg>
